PathFileType	4	(X/Y/Z)	36_2_rein_73_p1_0-519.trc
DataRate	CameraRate	NumFrames	NumMarkers	Units	OrigDataRate	OrigDataStartFrame	OrigNumFrames
44.0	44.0	4	27	m	44.0	0	520
Frame#	Time	RHip			RKnee			RAnkle			RBigToe			RSmallToe			RHeel			LHip			LKnee			LAnkle			LBigToe			LSmallToe			LHeel			Neck			Head			Nose			RShoulder			RElbow			RWrist			RThumb			RIndex			RPinky			LShoulder			LElbow			LWrist			LThumb			LIndex			LPinky			
		X1	Y1	Z1	X2	Y2	Z2	X3	Y3	Z3	X4	Y4	Z4	X5	Y5	Z5	X6	Y6	Z6	X7	Y7	Z7	X8	Y8	Z8	X9	Y9	Z9	X10	Y10	Z10	X11	Y11	Z11	X12	Y12	Z12	X13	Y13	Z13	X14	Y14	Z14	X15	Y15	Z15	X16	Y16	Z16	X17	Y17	Z17	X18	Y18	Z18	X19	Y19	Z19	X20	Y20	Z20	X21	Y21	Z21	X22	Y22	Z22	X23	Y23	Z23	X24	Y24	Z24	X25	Y25	Z25	X26	Y26	Z26	X27	Y27	Z27	
0	0.0	0.33054878910707086	0.5584115259424625	-0.1766134446050627	0.3614073591453671	0.6605102388359674	0.2693906782925805	0.3920418077039361	0.7358115154236776	0.7132250963736573	0.3297718263723149	0.5237523611155388	0.7459782605916366	0.39801452931420034	0.5646729736074035	0.7556453712588674	0.36830223926940864	0.8289986973200073	0.7786798467630357	0.12441535943267172	0.5624653711827109	-0.13191790435998135	0.1514612759349108	0.6563233723382349	0.30187976359189117	0.19006725058940327	0.7317255769455139	0.7193962407350516	0.19900837736184407	0.5632839635568941	0.7647182293455745	0.13512629124392844	0.6116622024466066	0.7806401340103459	0.20559911794953548	0.8199290781065316	0.8022073198398275	0.17216953995387155	0.46566535054277863	-0.7656085668902815	0.14014136577167854	0.33247657082001797	-1.0224206393611486	0.15622806151039884	0.30957782104740944	-0.8657896870271292	0.3532353515540342	0.514919953206969	-0.7009465246864487	0.42999528740481924	0.5086222100367205	-0.4224459595828359	0.310677614369982	0.4071528137554195	-0.1991036167745756	0.22203519509533448	0.41066549123969937	-0.09481102352295402	0.22656549384189753	0.41318938781446707	-0.07739701533912087	0.24983402270961813	0.44010770792250853	-0.07450734344067478	0.008692296609704364	0.50410012653411	-0.6749977815462631	0.015823915391360122	0.4910065172971868	-0.38886160148518006	0.17628361352198776	0.39927027572949364	-0.18047336390942076	0.25332367998747124	0.4018410280883711	-0.1268248581245223	0.2616147009170143	0.4123410294879821	-0.08213982194266585	0.232128052655399	0.42889139940452015	-0.07470500868680853
1	0.022727272727272728	0.33505809495746247	0.5439383868909261	-0.17584361158182427	0.3615090983355602	0.6599774568577114	0.2692056649056466	0.392067922287142	0.735909311091583	0.713187432597853	0.3294437946266852	0.5225980087944794	0.745874390161224	0.406322142787959	0.5502831155172221	0.7479111923769756	0.3683326286047654	0.8284580486925036	0.7786394244769325	0.11989829861380588	0.5756656838101788	-0.13213692771005092	0.15216070143173036	0.654841936563725	0.30596262217894743	0.18947407352702272	0.7313112743295272	0.7236624038562106	0.19909879947614115	0.5636286427350832	0.7647960021911651	0.13524510402575685	0.6111282705569683	0.7802943786388886	0.21182263648924315	0.8117687847450372	0.7949431996368853	0.1718822926698893	0.4654521736987302	-0.7656500510540571	0.13597596788722757	0.3439713673634529	-1.0235818115269524	0.15191666025600692	0.3084519319521291	-0.8658191798273093	0.35322022348011684	0.5149174681825195	-0.7009931185539942	0.42939582067299636	0.5086408816759239	-0.42605437571003785	0.3107242555924134	0.4072061446590594	-0.19889316791814698	0.22792763886980244	0.3918061724244627	-0.09756182951932088	0.22652905043124272	0.4098195445157539	-0.07462713445961626	0.24125518344948563	0.44029030023098353	-0.07741534489818404	0.00914750577601933	0.5041951696746781	-0.6713421711222614	0.015848528171001866	0.49064359534533103	-0.38900697746555035	0.17617874859806817	0.3988408019159276	-0.18041066533358732	0.24519413145273106	0.37709130258785145	-0.13080368062406697	0.25073479428072687	0.37421751868791886	-0.09231742036910737	0.23155337881850796	0.4311669276396103	-0.07047653750271954
2	0.045454545454545456	0.33505007155984684	0.543783178722228	-0.17589091745334362	0.3612050735651007	0.6599353564365121	0.2729569912891445	0.39208672448472476	0.7358963562186922	0.7132315951624013	0.3293273811429885	0.5223014055169233	0.7458022436206251	0.40265781778997317	0.5660734728146828	0.756228201220957	0.36829306372811826	0.8283899968534936	0.7787334156906182	0.12447233640994165	0.5620954174388827	-0.13191407293267912	0.15133080807576818	0.6534327217641888	0.3013040329976277	0.1897316678190869	0.7307300286961392	0.7186943730720385	0.19905977721166251	0.5637054220936965	0.7648090787437397	0.13519229602071886	0.6114682948621278	0.7804104179195224	0.2118768049678644	0.8118929586619604	0.7945578707512985	0.17190523854786202	0.4653773762171938	-0.7656766040561086	0.13317227916198748	0.3326254381768774	-1.0252629469803434	0.1518262648056713	0.30846107463411065	-0.865748855341132	0.3568733876156831	0.526471962461775	-0.7014887250965427	0.4262091462564182	0.4978103562129026	-0.4228132157554678	0.31072410706260034	0.40692746470580304	-0.1988761889766732	0.2235089909645328	0.39264681643315086	-0.0998844140818066	0.22288946958163638	0.4105349200072121	-0.07693714916198652	0.2417907671173958	0.4676854328625337	-0.06790609409650271	0.009564225972922821	0.5051889341494507	-0.6681054800665226	0.01590588234521284	0.49060549870580517	-0.38900571092836983	0.17194388410128542	0.41131381590803684	-0.1745881719077042	0.24507693920667606	0.3773404444853946	-0.13065577798061162	0.25177507386774206	0.37586801122512453	-0.08842131225101553	0.23154369558660406	0.43133659391316037	-0.07034643664564183
3	0.06818181818181818	0.334496709642144	0.5441690980784305	-0.17932659835477657	0.3611860959093372	0.6599134496771165	0.27303307819703476	0.39206339095872084	0.7358896793578651	0.7132833912066056	0.3294114334858907	0.5227182859703929	0.7458755180249571	0.4026390409293367	0.5665199871457054	0.7564529198849118	0.36831411170336675	0.8287995578369742	0.7788578201550866	0.11962652023930938	0.5760748881310596	-0.12879694673389191	0.15142551173289925	0.6552402466923862	0.3015876212176646	0.18984530852713102	0.7310532669119318	0.718925764947305	0.19899125920782773	0.5640506722568862	0.7649463656988665	0.13514773465619612	0.6115063414266104	0.7804428485528005	0.20758692863186784	0.830617900378873	0.8033307638788691	0.17530233100455775	0.4765412702950894	-0.7628213821073896	0.13331061822591345	0.33295738843687	-1.0254455711127537	0.1517531212590865	0.30816097622567645	-0.8654305860481186	0.3604887669846797	0.5125412693318353	-0.7017809503680721	0.4220342385520381	0.49734164986134544	-0.42231336824929316	0.31074162204175326	0.4070137221978495	-0.198740593811926	0.2196821817698734	0.3929786828323575	-0.09917082061354385	0.2224862751737714	0.4108619705271183	-0.0735343848290219	0.24192002580245134	0.4681263744144935	-0.06768469633931674	0.01173414040528133	0.5160384974208533	-0.6716023920488351	0.01593194615916226	0.4905810483582093	-0.38897558170541335	0.17196034851183362	0.41137050685654736	-0.17777266928524507	0.23756221014987705	0.3889625552857972	-0.1241036775518393	0.2473092545956713	0.3882765914895679	-0.08534485329855504	0.22840589518046775	0.4202011593190386	-0.07235261192618131
